<svg width="139" height="106" viewBox="0 0 139 106" fill="none" xmlns="http://www.w3.org/2000/svg">
<path d="M0 0H139V106H0V0Z" fill="#FBFBFD"/>
<path d="M64.25 41.2735C63.9719 41.2737 63.7032 41.1726 63.4942 40.9891L56.4942 34.8641C56.3711 34.7563 56.2725 34.6234 56.2049 34.4744C56.1373 34.3254 56.1023 34.1636 56.1023 34C56.1023 33.8364 56.1373 33.6746 56.2049 33.5256C56.2725 33.3766 56.3711 33.2437 56.4942 33.136L63.4942 27.011C63.7235 26.8104 64.023 26.709 64.3269 26.7293C64.6309 26.7496 64.9143 26.8897 65.1149 27.119C65.3155 27.3482 65.4168 27.6477 65.3965 27.9517C65.3763 28.2556 65.2361 28.539 65.0069 28.7396L58.994 34L65.0063 39.2604C65.1823 39.4142 65.3071 39.6181 65.3642 39.8448C65.4212 40.0715 65.4077 40.3101 65.3255 40.5289C65.2433 40.7477 65.0963 40.9362 64.9041 41.0693C64.7119 41.2023 64.4837 41.2735 64.25 41.2735Z" fill="black"/>
<path d="M74.7499 41.2735C74.5161 41.2737 74.2879 41.2025 74.0956 41.0695C73.9033 40.9365 73.7562 40.748 73.674 40.5292C73.5917 40.3104 73.5782 40.0716 73.6352 39.8449C73.6922 39.6182 73.817 39.4143 73.993 39.2604L80.0059 34L73.9936 28.7396C73.7644 28.539 73.6242 28.2556 73.6039 27.9517C73.5837 27.6477 73.685 27.3482 73.8856 27.119C74.0862 26.8897 74.3696 26.7496 74.6736 26.7293C74.9775 26.709 75.277 26.8104 75.5063 27.011L82.5063 33.136C82.6294 33.2437 82.728 33.3766 82.7956 33.5256C82.8632 33.6746 82.8982 33.8364 82.8982 34C82.8982 34.1636 82.8632 34.3254 82.7956 34.4744C82.728 34.6234 82.6294 34.7563 82.5063 34.8641L75.5063 40.9891C75.2972 41.1728 75.0283 41.274 74.7499 41.2735Z" fill="black"/>
<path d="M21.3979 67.832H25.4619C26.1873 67.832 26.8433 67.9493 27.4299 68.184C28.0273 68.4187 28.5339 68.7707 28.9499 69.24C29.3766 69.6987 29.7019 70.28 29.9259 70.984C30.1606 71.6773 30.2779 72.488 30.2779 73.416C30.2779 74.344 30.1606 75.16 29.9259 75.864C29.7019 76.5573 29.3766 77.1387 28.9499 77.608C28.5339 78.0667 28.0273 78.4133 27.4299 78.648C26.8433 78.8827 26.1873 79 25.4619 79H21.3979V67.832ZM25.4619 77.128C26.2513 77.128 26.8753 76.8987 27.3339 76.44C27.8033 75.9707 28.0379 75.256 28.0379 74.296V72.536C28.0379 71.576 27.8033 70.8667 27.3339 70.408C26.8753 69.9387 26.2513 69.704 25.4619 69.704H23.5099V77.128H25.4619ZM35.6772 79.192C35.0585 79.192 34.5039 79.0907 34.0132 78.888C33.5332 78.6747 33.1225 78.3813 32.7812 78.008C32.4505 77.624 32.1945 77.1653 32.0132 76.632C31.8319 76.088 31.7412 75.48 31.7412 74.808C31.7412 74.1467 31.8265 73.5493 31.9972 73.016C32.1785 72.4827 32.4345 72.0293 32.7652 71.656C33.0959 71.272 33.5012 70.9787 33.9812 70.776C34.4612 70.5627 35.0052 70.456 35.6132 70.456C36.2639 70.456 36.8292 70.568 37.3092 70.792C37.7892 71.016 38.1839 71.32 38.4932 71.704C38.8025 72.088 39.0319 72.536 39.1812 73.048C39.3412 73.5493 39.4212 74.088 39.4212 74.664V75.336H33.8692V75.544C33.8692 76.152 34.0399 76.6427 34.3812 77.016C34.7225 77.3787 35.2292 77.56 35.9012 77.56C36.4132 77.56 36.8292 77.4533 37.1492 77.24C37.4799 77.0267 37.7732 76.7547 38.0292 76.424L39.1332 77.656C38.7919 78.136 38.3225 78.5147 37.7252 78.792C37.1385 79.0587 36.4559 79.192 35.6772 79.192ZM35.6452 71.992C35.1012 71.992 34.6692 72.1733 34.3492 72.536C34.0292 72.8987 33.8692 73.368 33.8692 73.944V74.072H37.2932V73.928C37.2932 73.352 37.1492 72.888 36.8612 72.536C36.5839 72.1733 36.1785 71.992 35.6452 71.992ZM42.8744 79L40.0904 70.648H42.1064L43.2744 74.248L44.0904 77.224H44.2024L45.0184 74.248L46.1544 70.648H48.1064L45.3064 79H42.8744ZM52.7241 79.192C52.1054 79.192 51.5507 79.0907 51.0601 78.888C50.5801 78.6747 50.1694 78.3813 49.8281 78.008C49.4974 77.624 49.2414 77.1653 49.0601 76.632C48.8787 76.088 48.7881 75.48 48.7881 74.808C48.7881 74.1467 48.8734 73.5493 49.0441 73.016C49.2254 72.4827 49.4814 72.0293 49.8121 71.656C50.1427 71.272 50.5481 70.9787 51.0281 70.776C51.5081 70.5627 52.0521 70.456 52.6601 70.456C53.3107 70.456 53.8761 70.568 54.3561 70.792C54.8361 71.016 55.2307 71.32 55.5401 71.704C55.8494 72.088 56.0787 72.536 56.2281 73.048C56.3881 73.5493 56.4681 74.088 56.4681 74.664V75.336H50.9161V75.544C50.9161 76.152 51.0867 76.6427 51.4281 77.016C51.7694 77.3787 52.2761 77.56 52.9481 77.56C53.4601 77.56 53.8761 77.4533 54.1961 77.24C54.5267 77.0267 54.8201 76.7547 55.0761 76.424L56.1801 77.656C55.8387 78.136 55.3694 78.5147 54.7721 78.792C54.1854 79.0587 53.5027 79.192 52.7241 79.192ZM52.6921 71.992C52.1481 71.992 51.7161 72.1733 51.3961 72.536C51.0761 72.8987 50.9161 73.368 50.9161 73.944V74.072H54.3401V73.928C54.3401 73.352 54.1961 72.888 53.9081 72.536C53.6307 72.1733 53.2254 71.992 52.6921 71.992ZM60.3179 79C59.6139 79 59.0966 78.824 58.7659 78.472C58.4353 78.12 58.2699 77.624 58.2699 76.984V67.16H60.3179V77.368H61.4219V79H60.3179ZM66.2851 79.192C65.6877 79.192 65.1491 79.0907 64.6691 78.888C64.1997 78.6853 63.7944 78.392 63.4531 78.008C63.1224 77.624 62.8664 77.1653 62.6851 76.632C62.5037 76.088 62.4131 75.48 62.4131 74.808C62.4131 74.136 62.5037 73.5333 62.6851 73C62.8664 72.4667 63.1224 72.0133 63.4531 71.64C63.7944 71.256 64.1997 70.9627 64.6691 70.76C65.1491 70.5573 65.6877 70.456 66.2851 70.456C66.8824 70.456 67.4211 70.5573 67.9011 70.76C68.3811 70.9627 68.7864 71.256 69.1171 71.64C69.4584 72.0133 69.7197 72.4667 69.9011 73C70.0824 73.5333 70.1731 74.136 70.1731 74.808C70.1731 75.48 70.0824 76.088 69.9011 76.632C69.7197 77.1653 69.4584 77.624 69.1171 78.008C68.7864 78.392 68.3811 78.6853 67.9011 78.888C67.4211 79.0907 66.8824 79.192 66.2851 79.192ZM66.2851 77.544C66.8291 77.544 67.2557 77.3787 67.5651 77.048C67.8744 76.7173 68.0291 76.232 68.0291 75.592V74.04C68.0291 73.4107 67.8744 72.9307 67.5651 72.6C67.2557 72.2693 66.8291 72.104 66.2851 72.104C65.7517 72.104 65.3304 72.2693 65.0211 72.6C64.7117 72.9307 64.5571 73.4107 64.5571 74.04V75.592C64.5571 76.232 64.7117 76.7173 65.0211 77.048C65.3304 77.3787 65.7517 77.544 66.2851 77.544ZM71.9887 70.648H74.0367V72.024H74.1007C74.25 71.544 74.5327 71.1653 74.9487 70.888C75.3647 70.6 75.85 70.456 76.4047 70.456C77.4714 70.456 78.282 70.8347 78.8367 71.592C79.402 72.3387 79.6847 73.4107 79.6847 74.808C79.6847 76.216 79.402 77.2987 78.8367 78.056C78.282 78.8133 77.4714 79.192 76.4047 79.192C75.85 79.192 75.3647 79.048 74.9487 78.76C74.5434 78.472 74.2607 78.088 74.1007 77.608H74.0367V82.2H71.9887V70.648ZM75.7487 77.496C76.282 77.496 76.714 77.32 77.0447 76.968C77.3754 76.616 77.5407 76.1413 77.5407 75.544V74.104C77.5407 73.5067 77.3754 73.032 77.0447 72.68C76.714 72.3173 76.282 72.136 75.7487 72.136C75.258 72.136 74.8474 72.2587 74.5167 72.504C74.1967 72.7493 74.0367 73.0747 74.0367 73.48V76.136C74.0367 76.5733 74.1967 76.9093 74.5167 77.144C74.8474 77.3787 75.258 77.496 75.7487 77.496ZM81.5824 79V70.648H83.6304V72.04H83.7104C83.8704 71.6027 84.1264 71.2293 84.4784 70.92C84.8304 70.6107 85.3211 70.456 85.9504 70.456C86.5264 70.456 87.0224 70.5947 87.4384 70.872C87.8544 71.1493 88.1638 71.5707 88.3664 72.136H88.3984C88.5478 71.6667 88.8411 71.272 89.2784 70.952C89.7264 70.6213 90.2864 70.456 90.9584 70.456C91.7798 70.456 92.4091 70.7387 92.8464 71.304C93.2944 71.8693 93.5184 72.6747 93.5184 73.72V79H91.4704V73.928C91.4704 72.7333 91.0224 72.136 90.1264 72.136C89.9238 72.136 89.7264 72.168 89.5344 72.232C89.3531 72.2853 89.1878 72.3707 89.0384 72.488C88.8998 72.5947 88.7878 72.7333 88.7024 72.904C88.6171 73.064 88.5744 73.256 88.5744 73.48V79H86.5264V73.928C86.5264 72.7333 86.0784 72.136 85.1824 72.136C84.9904 72.136 84.7984 72.168 84.6064 72.232C84.4251 72.2853 84.2598 72.3707 84.1104 72.488C83.9718 72.5947 83.8544 72.7333 83.7584 72.904C83.6731 73.064 83.6304 73.256 83.6304 73.48V79H81.5824ZM99.1616 79.192C98.5429 79.192 97.9882 79.0907 97.4976 78.888C97.0176 78.6747 96.6069 78.3813 96.2656 78.008C95.9349 77.624 95.6789 77.1653 95.4976 76.632C95.3162 76.088 95.2256 75.48 95.2256 74.808C95.2256 74.1467 95.3109 73.5493 95.4816 73.016C95.6629 72.4827 95.9189 72.0293 96.2496 71.656C96.5802 71.272 96.9856 70.9787 97.4656 70.776C97.9456 70.5627 98.4896 70.456 99.0976 70.456C99.7482 70.456 100.314 70.568 100.794 70.792C101.274 71.016 101.668 71.32 101.978 71.704C102.287 72.088 102.516 72.536 102.666 73.048C102.826 73.5493 102.906 74.088 102.906 74.664V75.336H97.3536V75.544C97.3536 76.152 97.5242 76.6427 97.8656 77.016C98.2069 77.3787 98.7136 77.56 99.3856 77.56C99.8976 77.56 100.314 77.4533 100.634 77.24C100.964 77.0267 101.258 76.7547 101.514 76.424L102.618 77.656C102.276 78.136 101.807 78.5147 101.21 78.792C100.623 79.0587 99.9402 79.192 99.1616 79.192ZM99.1296 71.992C98.5856 71.992 98.1536 72.1733 97.8336 72.536C97.5136 72.8987 97.3536 73.368 97.3536 73.944V74.072H100.778V73.928C100.778 73.352 100.634 72.888 100.346 72.536C100.068 72.1733 99.6629 71.992 99.1296 71.992ZM104.707 79V70.648H106.755V72.04H106.835C107.006 71.592 107.273 71.2187 107.635 70.92C108.009 70.6107 108.521 70.456 109.171 70.456C110.035 70.456 110.697 70.7387 111.155 71.304C111.614 71.8693 111.843 72.6747 111.843 73.72V79H109.795V73.928C109.795 73.3307 109.689 72.8827 109.475 72.584C109.262 72.2853 108.91 72.136 108.419 72.136C108.206 72.136 107.998 72.168 107.795 72.232C107.603 72.2853 107.427 72.3707 107.267 72.488C107.118 72.5947 106.995 72.7333 106.899 72.904C106.803 73.064 106.755 73.256 106.755 73.48V79H104.707ZM116.722 79C116.018 79 115.479 78.8187 115.106 78.456C114.743 78.0827 114.562 77.5547 114.562 76.872V72.28H113.33V70.648H113.97C114.279 70.648 114.487 70.5787 114.594 70.44C114.711 70.2907 114.77 70.072 114.77 69.784V68.36H116.61V70.648H118.322V72.28H116.61V77.368H118.194V79H116.722Z" fill="black"/>
<path d="M0 0V-1H-1V0H0ZM139 0H140V-1H139V0ZM139 106V107H140V106H139ZM0 106H-1V107H0V106ZM0 1H139V-1H0V1ZM138 0V106H140V0H138ZM139 105H0V107H139V105ZM1 106V0H-1V106H1Z" fill="#E5E5EA"/>
</svg>
