<svg width="157" height="106" viewBox="0 0 157 106" fill="none" xmlns="http://www.w3.org/2000/svg">
<path d="M0 0H157V106H0V0Z" fill="white"/>
<path d="M67.8055 41.2827C67.8055 41.2865 67.8055 41.2937 67.8011 41.3035C67.8027 41.2969 67.8038 41.2898 67.8055 41.2827Z" fill="black"/>
<path d="M88.5572 42.1813C88.3771 42.1774 88.1993 42.1403 88.0327 42.0719L84.9276 40.971L84.9046 40.9617C84.8369 40.9335 84.7641 40.9194 84.6908 40.9202C84.6232 40.9202 84.5561 40.9325 84.4928 40.9563C84.4174 40.9847 83.7376 41.2401 83.0245 41.4359C82.6378 41.542 81.292 41.8881 80.2119 41.8881C77.4513 41.8881 74.87 40.8272 72.9445 38.9006C72.0038 37.9657 71.2579 36.8535 70.75 35.6283C70.242 34.4032 69.9821 33.0895 69.9853 31.7633C69.9853 31.0722 70.0597 30.3832 70.2074 29.7081C70.6881 27.4867 71.9612 25.466 73.7921 24.0206C75.6703 22.5474 77.9889 21.7477 80.3759 21.75C83.2312 21.75 85.8917 22.8438 87.8681 24.8223C89.7363 26.6965 90.76 29.1607 90.7518 31.7606C90.7502 33.6924 90.1733 35.5801 89.0948 37.1828L89.0844 37.1981L89.0439 37.2528C89.0346 37.2654 89.0253 37.2774 89.0166 37.29L89.0084 37.3048C88.9866 37.3418 88.9669 37.3799 88.9493 37.4191L89.8101 40.4783C89.8481 40.6045 89.8688 40.7353 89.8713 40.8671C89.8716 41.0398 89.8377 41.2107 89.7717 41.3703C89.7058 41.5298 89.609 41.6748 89.4869 41.7968C89.3648 41.9189 89.2199 42.0157 89.0604 42.0817C88.9008 42.1476 88.7298 42.1815 88.5572 42.1813Z" fill="black"/>
<path d="M80.8991 43.2635C80.8426 43.1536 80.7631 43.0572 80.666 42.9807C80.5689 42.9043 80.4565 42.8497 80.3364 42.8206C80.0203 42.7369 79.6517 42.7511 79.3701 42.7303C76.7108 42.5454 74.2084 41.4042 72.3252 39.5174C70.6511 37.8527 69.5631 35.6891 69.225 33.3525C69.1484 32.8198 69.1484 32.6875 69.1484 32.6875C69.1484 32.5098 69.0943 32.3363 68.9932 32.1901C68.8921 32.0439 68.749 31.932 68.5827 31.8692C68.4165 31.8063 68.235 31.7956 68.0626 31.8385C67.8901 31.8813 67.7347 31.9756 67.6172 32.1089C67.6172 32.1089 67.1862 32.5781 66.9828 33.049C66.4122 34.3636 66.1689 35.797 66.2737 37.2262C66.3785 38.6555 66.8282 40.038 67.5844 41.2554C67.7266 41.4922 67.7266 41.6016 67.6948 41.8477C67.5455 42.6193 67.2841 43.9805 67.148 44.6865C67.1029 44.9155 67.1196 45.1523 67.1965 45.3726C67.2735 45.5929 67.4077 45.7888 67.5855 45.9399L67.6106 45.9613C67.8458 46.148 68.1372 46.2498 68.4375 46.25C68.6064 46.2502 68.7737 46.2169 68.9297 46.1521L71.856 45.0228C71.9568 44.9845 72.0681 44.9845 72.1688 45.0228C73.3211 45.4516 74.5204 45.6791 75.6568 45.6791C77.0727 45.6804 78.4715 45.3693 79.7534 44.768C80.052 44.628 80.5191 44.476 80.7925 44.1599C80.896 44.0373 80.9612 43.887 80.9802 43.7277C80.9991 43.5684 80.971 43.407 80.8991 43.2635Z" fill="black"/>
<path d="M25.7339 79.192C24.9979 79.192 24.3313 79.0747 23.7339 78.84C23.1473 78.5947 22.6406 78.232 22.2139 77.752C21.7979 77.272 21.4779 76.68 21.2539 75.976C21.0299 75.2613 20.9179 74.4347 20.9179 73.496C20.9179 72.5573 21.0299 71.7253 21.2539 71C21.4779 70.264 21.7979 69.6507 22.2139 69.16C22.6406 68.6587 23.1473 68.28 23.7339 68.024C24.3313 67.768 24.9979 67.64 25.7339 67.64C26.7366 67.64 27.5686 67.8533 28.2299 68.28C28.8913 68.7067 29.4193 69.352 29.8139 70.216L28.0059 71.176C27.8459 70.6747 27.5846 70.2747 27.2219 69.976C26.8593 69.6667 26.3633 69.512 25.7339 69.512C24.9446 69.512 24.3153 69.7787 23.8459 70.312C23.3873 70.8453 23.1579 71.592 23.1579 72.552V74.312C23.1579 75.2827 23.3873 76.0293 23.8459 76.552C24.3153 77.064 24.9446 77.32 25.7339 77.32C26.3633 77.32 26.8753 77.1493 27.2699 76.808C27.6753 76.4667 27.9686 76.0453 28.1499 75.544L29.8619 76.552C29.4566 77.384 28.9179 78.0347 28.2459 78.504C27.5739 78.9627 26.7366 79.192 25.7339 79.192ZM34.8476 79.192C34.2502 79.192 33.7116 79.0907 33.2316 78.888C32.7622 78.6853 32.3569 78.392 32.0156 78.008C31.6849 77.624 31.4289 77.1653 31.2476 76.632C31.0662 76.088 30.9756 75.48 30.9756 74.808C30.9756 74.136 31.0662 73.5333 31.2476 73C31.4289 72.4667 31.6849 72.0133 32.0156 71.64C32.3569 71.256 32.7622 70.9627 33.2316 70.76C33.7116 70.5573 34.2502 70.456 34.8476 70.456C35.4449 70.456 35.9836 70.5573 36.4636 70.76C36.9436 70.9627 37.3489 71.256 37.6796 71.64C38.0209 72.0133 38.2822 72.4667 38.4636 73C38.6449 73.5333 38.7356 74.136 38.7356 74.808C38.7356 75.48 38.6449 76.088 38.4636 76.632C38.2822 77.1653 38.0209 77.624 37.6796 78.008C37.3489 78.392 36.9436 78.6853 36.4636 78.888C35.9836 79.0907 35.4449 79.192 34.8476 79.192ZM34.8476 77.544C35.3916 77.544 35.8182 77.3787 36.1276 77.048C36.4369 76.7173 36.5916 76.232 36.5916 75.592V74.04C36.5916 73.4107 36.4369 72.9307 36.1276 72.6C35.8182 72.2693 35.3916 72.104 34.8476 72.104C34.3142 72.104 33.8929 72.2693 33.5836 72.6C33.2742 72.9307 33.1196 73.4107 33.1196 74.04V75.592C33.1196 76.232 33.2742 76.7173 33.5836 77.048C33.8929 77.3787 34.3142 77.544 34.8476 77.544ZM40.5512 79V70.648H42.5992V72.04H42.6792C42.8392 71.6027 43.0952 71.2293 43.4472 70.92C43.7992 70.6107 44.2899 70.456 44.9192 70.456C45.4952 70.456 45.9912 70.5947 46.4072 70.872C46.8232 71.1493 47.1325 71.5707 47.3352 72.136H47.3672C47.5165 71.6667 47.8099 71.272 48.2472 70.952C48.6952 70.6213 49.2552 70.456 49.9272 70.456C50.7485 70.456 51.3779 70.7387 51.8152 71.304C52.2632 71.8693 52.4872 72.6747 52.4872 73.72V79H50.4392V73.928C50.4392 72.7333 49.9912 72.136 49.0952 72.136C48.8925 72.136 48.6952 72.168 48.5032 72.232C48.3219 72.2853 48.1565 72.3707 48.0072 72.488C47.8685 72.5947 47.7565 72.7333 47.6712 72.904C47.5859 73.064 47.5432 73.256 47.5432 73.48V79H45.4952V73.928C45.4952 72.7333 45.0472 72.136 44.1512 72.136C43.9592 72.136 43.7672 72.168 43.5752 72.232C43.3939 72.2853 43.2285 72.3707 43.0792 72.488C42.9405 72.5947 42.8232 72.7333 42.7272 72.904C42.6419 73.064 42.5992 73.256 42.5992 73.48V79H40.5512ZM54.7543 79V70.648H56.8023V72.04H56.8823C57.0423 71.6027 57.2983 71.2293 57.6503 70.92C58.0023 70.6107 58.493 70.456 59.1223 70.456C59.6983 70.456 60.1943 70.5947 60.6103 70.872C61.0263 71.1493 61.3356 71.5707 61.5383 72.136H61.5703C61.7196 71.6667 62.013 71.272 62.4503 70.952C62.8983 70.6213 63.4583 70.456 64.1303 70.456C64.9516 70.456 65.581 70.7387 66.0183 71.304C66.4663 71.8693 66.6903 72.6747 66.6903 73.72V79H64.6423V73.928C64.6423 72.7333 64.1943 72.136 63.2983 72.136C63.0956 72.136 62.8983 72.168 62.7063 72.232C62.525 72.2853 62.3596 72.3707 62.2103 72.488C62.0716 72.5947 61.9596 72.7333 61.8743 72.904C61.789 73.064 61.7463 73.256 61.7463 73.48V79H59.6983V73.928C59.6983 72.7333 59.2503 72.136 58.3543 72.136C58.1623 72.136 57.9703 72.168 57.7783 72.232C57.597 72.2853 57.4316 72.3707 57.2823 72.488C57.1436 72.5947 57.0263 72.7333 56.9303 72.904C56.845 73.064 56.8023 73.256 56.8023 73.48V79H54.7543ZM73.9494 77.608H73.8694C73.7948 77.8213 73.6934 78.024 73.5654 78.216C73.4481 78.3973 73.2934 78.5627 73.1014 78.712C72.9201 78.8613 72.6961 78.9787 72.4294 79.064C72.1734 79.1493 71.8748 79.192 71.5334 79.192C70.6694 79.192 70.0081 78.9093 69.5494 78.344C69.0908 77.7787 68.8614 76.9733 68.8614 75.928V70.648H70.9094V75.72C70.9094 76.296 71.0214 76.7387 71.2454 77.048C71.4694 77.3467 71.8268 77.496 72.3174 77.496C72.5201 77.496 72.7174 77.4693 72.9094 77.416C73.1121 77.3627 73.2881 77.2827 73.4374 77.176C73.5868 77.0587 73.7094 76.92 73.8054 76.76C73.9014 76.5893 73.9494 76.392 73.9494 76.168V70.648H75.9974V79H73.9494V77.608ZM78.3637 79V70.648H80.4117V72.04H80.4917C80.6624 71.592 80.929 71.2187 81.2917 70.92C81.665 70.6107 82.177 70.456 82.8277 70.456C83.6917 70.456 84.353 70.7387 84.8117 71.304C85.2704 71.8693 85.4997 72.6747 85.4997 73.72V79H83.4517V73.928C83.4517 73.3307 83.345 72.8827 83.1317 72.584C82.9184 72.2853 82.5664 72.136 82.0757 72.136C81.8624 72.136 81.6544 72.168 81.4517 72.232C81.2597 72.2853 81.0837 72.3707 80.9237 72.488C80.7744 72.5947 80.6517 72.7333 80.5557 72.904C80.4597 73.064 80.4117 73.256 80.4117 73.48V79H78.3637ZM88.7939 69.432C88.3673 69.432 88.0579 69.336 87.8659 69.144C87.6846 68.952 87.5939 68.7067 87.5939 68.408V68.088C87.5939 67.7893 87.6846 67.544 87.8659 67.352C88.0579 67.16 88.3673 67.064 88.7939 67.064C89.2099 67.064 89.5139 67.16 89.7059 67.352C89.8979 67.544 89.9939 67.7893 89.9939 68.088V68.408C89.9939 68.7067 89.8979 68.952 89.7059 69.144C89.5139 69.336 89.2099 69.432 88.7939 69.432ZM87.7699 70.648H89.8179V79H87.7699V70.648ZM95.4878 79.192C94.8691 79.192 94.3198 79.0907 93.8398 78.888C93.3598 78.6853 92.9545 78.392 92.6238 78.008C92.3038 77.624 92.0585 77.1653 91.8878 76.632C91.7171 76.088 91.6318 75.48 91.6318 74.808C91.6318 74.136 91.7171 73.5333 91.8878 73C92.0585 72.4667 92.3038 72.0133 92.6238 71.64C92.9545 71.256 93.3598 70.9627 93.8398 70.76C94.3198 70.5573 94.8691 70.456 95.4878 70.456C96.3305 70.456 97.0238 70.6427 97.5678 71.016C98.1225 71.3893 98.5225 71.9067 98.7678 72.568L97.0878 73.32C96.9918 72.968 96.8105 72.68 96.5438 72.456C96.2878 72.2213 95.9358 72.104 95.4878 72.104C94.9118 72.104 94.4798 72.2853 94.1918 72.648C93.9145 73.0107 93.7758 73.4853 93.7758 74.072V75.592C93.7758 76.1787 93.9145 76.6533 94.1918 77.016C94.4798 77.368 94.9118 77.544 95.4878 77.544C95.9785 77.544 96.3571 77.4213 96.6238 77.176C96.8905 76.92 97.0985 76.6053 97.2478 76.232L98.8158 76.984C98.5385 77.72 98.1171 78.2747 97.5518 78.648C96.9865 79.0107 96.2985 79.192 95.4878 79.192ZM106.539 79C106.091 79 105.734 78.872 105.467 78.616C105.211 78.3493 105.051 77.9973 104.987 77.56H104.891C104.752 78.104 104.47 78.5147 104.043 78.792C103.616 79.0587 103.088 79.192 102.459 79.192C101.606 79.192 100.95 78.968 100.491 78.52C100.032 78.072 99.8029 77.4747 99.8029 76.728C99.8029 75.864 100.112 75.224 100.731 74.808C101.35 74.3813 102.23 74.168 103.371 74.168H104.795V73.56C104.795 73.0907 104.672 72.728 104.427 72.472C104.182 72.216 103.787 72.088 103.243 72.088C102.763 72.088 102.374 72.1947 102.075 72.408C101.787 72.6107 101.542 72.856 101.339 73.144L100.123 72.056C100.432 71.576 100.843 71.192 101.355 70.904C101.867 70.6053 102.544 70.456 103.387 70.456C104.518 70.456 105.376 70.712 105.963 71.224C106.55 71.736 106.843 72.472 106.843 73.432V77.368H107.675V79H106.539ZM103.147 77.704C103.606 77.704 103.995 77.6027 104.315 77.4C104.635 77.1973 104.795 76.8987 104.795 76.504V75.4H103.483C102.416 75.4 101.883 75.7413 101.883 76.424V76.696C101.883 77.0373 101.99 77.2933 102.203 77.464C102.427 77.624 102.742 77.704 103.147 77.704ZM111.878 79C111.174 79 110.635 78.8187 110.262 78.456C109.899 78.0827 109.718 77.5547 109.718 76.872V72.28H108.486V70.648H109.126C109.435 70.648 109.643 70.5787 109.75 70.44C109.867 70.2907 109.926 70.072 109.926 69.784V68.36H111.766V70.648H113.478V72.28H111.766V77.368H113.35V79H111.878ZM116.278 69.432C115.852 69.432 115.542 69.336 115.35 69.144C115.169 68.952 115.078 68.7067 115.078 68.408V68.088C115.078 67.7893 115.169 67.544 115.35 67.352C115.542 67.16 115.852 67.064 116.278 67.064C116.694 67.064 116.998 67.16 117.19 67.352C117.382 67.544 117.478 67.7893 117.478 68.088V68.408C117.478 68.7067 117.382 68.952 117.19 69.144C116.998 69.336 116.694 69.432 116.278 69.432ZM115.254 70.648H117.302V79H115.254V70.648ZM122.988 79.192C122.391 79.192 121.852 79.0907 121.372 78.888C120.903 78.6853 120.498 78.392 120.156 78.008C119.826 77.624 119.57 77.1653 119.388 76.632C119.207 76.088 119.116 75.48 119.116 74.808C119.116 74.136 119.207 73.5333 119.388 73C119.57 72.4667 119.826 72.0133 120.156 71.64C120.498 71.256 120.903 70.9627 121.372 70.76C121.852 70.5573 122.391 70.456 122.988 70.456C123.586 70.456 124.124 70.5573 124.604 70.76C125.084 70.9627 125.49 71.256 125.82 71.64C126.162 72.0133 126.423 72.4667 126.604 73C126.786 73.5333 126.876 74.136 126.876 74.808C126.876 75.48 126.786 76.088 126.604 76.632C126.423 77.1653 126.162 77.624 125.82 78.008C125.49 78.392 125.084 78.6853 124.604 78.888C124.124 79.0907 123.586 79.192 122.988 79.192ZM122.988 77.544C123.532 77.544 123.959 77.3787 124.268 77.048C124.578 76.7173 124.732 76.232 124.732 75.592V74.04C124.732 73.4107 124.578 72.9307 124.268 72.6C123.959 72.2693 123.532 72.104 122.988 72.104C122.455 72.104 122.034 72.2693 121.724 72.6C121.415 72.9307 121.26 73.4107 121.26 74.04V75.592C121.26 76.232 121.415 76.7173 121.724 77.048C122.034 77.3787 122.455 77.544 122.988 77.544ZM128.692 79V70.648H130.74V72.04H130.82C130.99 71.592 131.257 71.2187 131.62 70.92C131.993 70.6107 132.505 70.456 133.156 70.456C134.02 70.456 134.681 70.7387 135.14 71.304C135.598 71.8693 135.828 72.6747 135.828 73.72V79H133.78V73.928C133.78 73.3307 133.673 72.8827 133.46 72.584C133.246 72.2853 132.894 72.136 132.404 72.136C132.19 72.136 131.982 72.168 131.78 72.232C131.588 72.2853 131.412 72.3707 131.252 72.488C131.102 72.5947 130.98 72.7333 130.884 72.904C130.788 73.064 130.74 73.256 130.74 73.48V79H128.692Z" fill="black"/>
</svg>
