<svg width="124" height="106" viewBox="0 0 124 106" fill="none" xmlns="http://www.w3.org/2000/svg">
<path d="M0 0H124V106H0V0Z" fill="white"/>
<path d="M72.1172 38.3859L72.1139 38.3832C71.5709 37.8812 70.8681 37.763 70.3552 37.6766L70.3174 37.6701C69.8225 37.5886 69.7443 37.5334 69.5201 37.3327C69.3866 37.214 69.2275 37.0237 69.2275 36.7891C69.2275 36.5545 69.3866 36.3641 69.5195 36.2455L71.1755 34.776C72.593 33.5231 73.3739 31.8415 73.3739 30.0406C73.3739 28.2398 72.5946 26.5581 71.1755 25.3047C69.2127 23.5771 66.527 22.625 63.6084 22.625C60.2347 22.625 56.8594 23.903 54.3438 26.131C51.9446 28.2513 50.625 31.0917 50.625 34.1285C50.625 37.1653 51.9463 40.0058 54.3438 42.1255C55.5332 43.1777 56.9409 43.9947 58.5284 44.5547C60.0554 45.0903 61.661 45.3675 63.2791 45.375H63.3781C66.7141 45.375 69.8909 44.2501 72.0948 42.2906C72.6252 41.8225 72.9233 41.1515 72.9337 40.4006C72.9452 39.6257 72.64 38.8721 72.1172 38.3859ZM54.125 31.375C54.125 31.0289 54.2276 30.6905 54.4199 30.4028C54.6122 30.115 54.8855 29.8907 55.2053 29.7582C55.5251 29.6258 55.8769 29.5911 56.2164 29.6586C56.5559 29.7262 56.8677 29.8928 57.1124 30.1376C57.3572 30.3823 57.5239 30.6941 57.5914 31.0336C57.6589 31.3731 57.6242 31.7249 57.4918 32.0447C57.3593 32.3645 57.135 32.6378 56.8472 32.8301C56.5595 33.0224 56.2211 33.125 55.875 33.125C55.4109 33.125 54.9658 32.9406 54.6376 32.6124C54.3094 32.2842 54.125 31.8391 54.125 31.375ZM56.3125 38.7578C55.9664 38.7578 55.628 38.6552 55.3403 38.4629C55.0525 38.2706 54.8282 37.9973 54.6957 37.6775C54.5633 37.3577 54.5286 37.0059 54.5961 36.6664C54.6637 36.3269 54.8303 36.0151 55.0751 35.7704C55.3198 35.5256 55.6316 35.359 55.9711 35.2914C56.3106 35.2239 56.6624 35.2586 56.9822 35.391C57.302 35.5235 57.5753 35.7478 57.7676 36.0356C57.9599 36.3234 58.0625 36.6617 58.0625 37.0078C58.0625 37.4719 57.8781 37.9171 57.5499 38.2452C57.2217 38.5734 56.7766 38.7578 56.3125 38.7578ZM58.5 27.875C58.5 27.5289 58.6026 27.1905 58.7949 26.9028C58.9872 26.615 59.2605 26.3907 59.5803 26.2582C59.9001 26.1258 60.2519 26.0911 60.5914 26.1586C60.9309 26.2262 61.2427 26.3928 61.4874 26.6376C61.7322 26.8823 61.8989 27.1941 61.9664 27.5336C62.0339 27.8731 61.9992 28.2249 61.8668 28.5447C61.7343 28.8645 61.51 29.1378 61.2222 29.3301C60.9345 29.5224 60.5961 29.625 60.25 29.625C59.7859 29.625 59.3408 29.4406 59.0126 29.1124C58.6844 28.7842 58.5 28.3391 58.5 27.875ZM62 42.6953C61.4808 42.6953 60.9733 42.5414 60.5416 42.2529C60.11 41.9645 59.7735 41.5545 59.5748 41.0749C59.3761 40.5952 59.3242 40.0674 59.4254 39.5582C59.5267 39.049 59.7767 38.5813 60.1438 38.2142C60.511 37.847 60.9787 37.597 61.4879 37.4958C61.9971 37.3945 62.5249 37.4464 63.0045 37.6451C63.4842 37.8438 63.8942 38.1803 64.1826 38.6119C64.471 39.0436 64.625 39.5511 64.625 40.0703C64.625 40.7665 64.3484 41.4342 63.8562 41.9265C63.3639 42.4188 62.6962 42.6953 62 42.6953ZM65.9375 29.625C65.5914 29.625 65.253 29.5224 64.9653 29.3301C64.6775 29.1378 64.4532 28.8645 64.3207 28.5447C64.1883 28.2249 64.1536 27.8731 64.2211 27.5336C64.2887 27.1941 64.4553 26.8823 64.7001 26.6376C64.9448 26.3928 65.2566 26.2262 65.5961 26.1586C65.9356 26.0911 66.2874 26.1258 66.6072 26.2582C66.927 26.3907 67.2003 26.615 67.3926 26.9028C67.5849 27.1905 67.6875 27.5289 67.6875 27.875C67.6875 28.3391 67.5031 28.7842 67.1749 29.1124C66.8467 29.4406 66.4016 29.625 65.9375 29.625Z" fill="black"/>
<path d="M21.7808 67.832H25.8448C26.5701 67.832 27.2261 67.9493 27.8128 68.184C28.4101 68.4187 28.9168 68.7707 29.3328 69.24C29.7594 69.6987 30.0848 70.28 30.3088 70.984C30.5434 71.6773 30.6608 72.488 30.6608 73.416C30.6608 74.344 30.5434 75.16 30.3088 75.864C30.0848 76.5573 29.7594 77.1387 29.3328 77.608C28.9168 78.0667 28.4101 78.4133 27.8128 78.648C27.2261 78.8827 26.5701 79 25.8448 79H21.7808V67.832ZM25.8448 77.128C26.6341 77.128 27.2581 76.8987 27.7168 76.44C28.1861 75.9707 28.4208 75.256 28.4208 74.296V72.536C28.4208 71.576 28.1861 70.8667 27.7168 70.408C27.2581 69.9387 26.6341 69.704 25.8448 69.704H23.8928V77.128H25.8448ZM33.708 69.432C33.2813 69.432 32.972 69.336 32.78 69.144C32.5987 68.952 32.508 68.7067 32.508 68.408V68.088C32.508 67.7893 32.5987 67.544 32.78 67.352C32.972 67.16 33.2813 67.064 33.708 67.064C34.124 67.064 34.428 67.16 34.62 67.352C34.812 67.544 34.908 67.7893 34.908 68.088V68.408C34.908 68.7067 34.812 68.952 34.62 69.144C34.428 69.336 34.124 69.432 33.708 69.432ZM32.684 70.648H34.732V79H32.684V70.648ZM44.6419 79.704C44.6419 80.1413 44.5619 80.5253 44.4019 80.856C44.2525 81.1973 44.0019 81.48 43.6499 81.704C43.2979 81.928 42.8445 82.0987 42.2899 82.216C41.7352 82.3333 41.0579 82.392 40.2579 82.392C39.5539 82.392 38.9565 82.344 38.4659 82.248C37.9752 82.1627 37.5699 82.0347 37.2499 81.864C36.9405 81.704 36.7165 81.5013 36.5779 81.256C36.4392 81.0107 36.3699 80.7333 36.3699 80.424C36.3699 79.9547 36.4979 79.5867 36.7539 79.32C37.0205 79.064 37.3885 78.8987 37.8579 78.824V78.648C37.5165 78.5627 37.2499 78.3973 37.0579 78.152C36.8765 77.896 36.7859 77.5973 36.7859 77.256C36.7859 77.0427 36.8285 76.856 36.9139 76.696C36.9992 76.5253 37.1112 76.3813 37.2499 76.264C37.3992 76.1467 37.5645 76.0507 37.7459 75.976C37.9272 75.8907 38.1192 75.8267 38.3219 75.784V75.72C37.8099 75.4853 37.4259 75.16 37.1699 74.744C36.9245 74.328 36.8019 73.8427 36.8019 73.288C36.8019 72.4347 37.0952 71.752 37.6819 71.24C38.2685 70.7173 39.1272 70.456 40.2579 70.456C40.5139 70.456 40.7645 70.472 41.0099 70.504C41.2659 70.536 41.5005 70.5893 41.7139 70.664V70.392C41.7139 69.5813 42.1085 69.176 42.8979 69.176H44.1939V70.744H42.4179V70.968C42.8552 71.2133 43.1805 71.5333 43.3939 71.928C43.6072 72.3227 43.7139 72.776 43.7139 73.288C43.7139 74.1307 43.4205 74.808 42.8339 75.32C42.2579 75.832 41.3992 76.088 40.2579 76.088C39.7672 76.088 39.3405 76.04 38.9779 75.944C38.8179 76.0187 38.6792 76.12 38.5619 76.248C38.4445 76.3653 38.3859 76.5147 38.3859 76.696C38.3859 77.112 38.7485 77.32 39.4739 77.32H41.7139C42.7379 77.32 43.4792 77.5333 43.9379 77.96C44.4072 78.376 44.6419 78.9573 44.6419 79.704ZM42.7219 79.944C42.7219 79.6773 42.6152 79.4693 42.4019 79.32C42.1885 79.1707 41.8205 79.096 41.2979 79.096H38.4499C38.1619 79.3093 38.0179 79.5973 38.0179 79.96C38.0179 80.28 38.1512 80.5307 38.4179 80.712C38.6845 80.8933 39.1379 80.984 39.7779 80.984H40.8019C41.4739 80.984 41.9592 80.8987 42.2579 80.728C42.5672 80.5573 42.7219 80.296 42.7219 79.944ZM40.2579 74.696C41.2605 74.696 41.7619 74.2693 41.7619 73.416V73.144C41.7619 72.2907 41.2605 71.864 40.2579 71.864C39.2552 71.864 38.7539 72.2907 38.7539 73.144V73.416C38.7539 74.2693 39.2552 74.696 40.2579 74.696ZM46.8486 69.432C46.422 69.432 46.1126 69.336 45.9206 69.144C45.7393 68.952 45.6486 68.7067 45.6486 68.408V68.088C45.6486 67.7893 45.7393 67.544 45.9206 67.352C46.1126 67.16 46.422 67.064 46.8486 67.064C47.2646 67.064 47.5686 67.16 47.7606 67.352C47.9526 67.544 48.0486 67.7893 48.0486 68.088V68.408C48.0486 68.7067 47.9526 68.952 47.7606 69.144C47.5686 69.336 47.2646 69.432 46.8486 69.432ZM45.8246 70.648H47.8726V79H45.8246V70.648ZM52.8545 79C52.1505 79 51.6118 78.8187 51.2385 78.456C50.8758 78.0827 50.6945 77.5547 50.6945 76.872V72.28H49.4625V70.648H50.1025C50.4118 70.648 50.6198 70.5787 50.7265 70.44C50.8438 70.2907 50.9025 70.072 50.9025 69.784V68.36H52.7425V70.648H54.4545V72.28H52.7425V77.368H54.3265V79H52.8545ZM62.3749 79C61.9269 79 61.5695 78.872 61.3029 78.616C61.0469 78.3493 60.8869 77.9973 60.8229 77.56H60.7269C60.5882 78.104 60.3055 78.5147 59.8789 78.792C59.4522 79.0587 58.9242 79.192 58.2949 79.192C57.4415 79.192 56.7855 78.968 56.3269 78.52C55.8682 78.072 55.6389 77.4747 55.6389 76.728C55.6389 75.864 55.9482 75.224 56.5669 74.808C57.1855 74.3813 58.0655 74.168 59.2069 74.168H60.6309V73.56C60.6309 73.0907 60.5082 72.728 60.2629 72.472C60.0175 72.216 59.6229 72.088 59.0789 72.088C58.5989 72.088 58.2095 72.1947 57.9109 72.408C57.6229 72.6107 57.3775 72.856 57.1749 73.144L55.9589 72.056C56.2682 71.576 56.6789 71.192 57.1909 70.904C57.7029 70.6053 58.3802 70.456 59.2229 70.456C60.3535 70.456 61.2122 70.712 61.7989 71.224C62.3855 71.736 62.6789 72.472 62.6789 73.432V77.368H63.5109V79H62.3749ZM58.9829 77.704C59.4415 77.704 59.8309 77.6027 60.1509 77.4C60.4709 77.1973 60.6309 76.8987 60.6309 76.504V75.4H59.3189C58.2522 75.4 57.7189 75.7413 57.7189 76.424V76.696C57.7189 77.0373 57.8255 77.2933 58.0389 77.464C58.2629 77.624 58.5775 77.704 58.9829 77.704ZM67.2164 79C66.5124 79 65.995 78.824 65.6644 78.472C65.3337 78.12 65.1684 77.624 65.1684 76.984V67.16H67.2164V77.368H68.3204V79H67.2164ZM80.6927 79L79.7968 76.152H75.8288L74.9488 79H72.8048L76.5488 67.832H79.1728L82.8848 79H80.6927ZM77.8448 69.752H77.7648L76.3408 74.344H79.2848L77.8448 69.752ZM84.4028 79V70.648H86.4508V72.376H86.5308C86.5841 72.152 86.6641 71.9387 86.7708 71.736C86.8881 71.5227 87.0374 71.336 87.2188 71.176C87.4001 71.016 87.6134 70.888 87.8588 70.792C88.1148 70.696 88.4081 70.648 88.7388 70.648H89.1868V72.584H88.5468C87.8534 72.584 87.3308 72.6853 86.9788 72.888C86.6268 73.0907 86.4508 73.4213 86.4508 73.88V79H84.4028ZM93.3545 79C92.6505 79 92.1118 78.8187 91.7385 78.456C91.3758 78.0827 91.1945 77.5547 91.1945 76.872V72.28H89.9625V70.648H90.6025C90.9118 70.648 91.1198 70.5787 91.2265 70.44C91.3438 70.2907 91.4025 70.072 91.4025 69.784V68.36H93.2425V70.648H94.9545V72.28H93.2425V77.368H94.8265V79H93.3545ZM99.4669 79.192C98.6669 79.192 97.9949 79.0587 97.4509 78.792C96.9069 78.5147 96.4269 78.136 96.0109 77.656L97.2589 76.44C97.5682 76.792 97.9042 77.0693 98.2669 77.272C98.6402 77.4747 99.0669 77.576 99.5469 77.576C100.038 77.576 100.39 77.4907 100.603 77.32C100.827 77.1493 100.939 76.9147 100.939 76.616C100.939 76.3707 100.859 76.1787 100.699 76.04C100.55 75.8907 100.288 75.7893 99.9149 75.736L99.0829 75.624C98.1762 75.5067 97.4829 75.2507 97.0029 74.856C96.5335 74.4507 96.2989 73.864 96.2989 73.096C96.2989 72.6907 96.3735 72.328 96.5229 72.008C96.6722 71.6773 96.8855 71.4 97.1629 71.176C97.4402 70.9413 97.7709 70.7653 98.1549 70.648C98.5495 70.52 98.9869 70.456 99.4669 70.456C99.8722 70.456 100.23 70.488 100.539 70.552C100.859 70.6053 101.147 70.6907 101.403 70.808C101.659 70.9147 101.894 71.0533 102.107 71.224C102.32 71.384 102.528 71.5653 102.731 71.768L101.531 72.968C101.286 72.712 100.992 72.4987 100.651 72.328C100.31 72.1573 99.9362 72.072 99.5309 72.072C99.0829 72.072 98.7575 72.152 98.5549 72.312C98.3629 72.472 98.2669 72.68 98.2669 72.936C98.2669 73.2133 98.3469 73.4267 98.5069 73.576C98.6775 73.7147 98.9602 73.816 99.3549 73.88L100.203 73.992C102.006 74.248 102.907 75.0693 102.907 76.456C102.907 76.8613 102.822 77.2347 102.651 77.576C102.491 77.9067 102.262 78.1947 101.963 78.44C101.664 78.6747 101.302 78.8613 100.875 79C100.459 79.128 99.9895 79.192 99.4669 79.192Z" fill="black"/>
</svg>
