<svg width="137" height="106" viewBox="0 0 137 106" fill="none" xmlns="http://www.w3.org/2000/svg">
<path d="M0 0H137V106H0V0Z" fill="white"/>
<path d="M60.1875 28.75C59.5818 28.75 58.9897 28.5704 58.4861 28.2339C57.9824 27.8974 57.5899 27.4191 57.3581 26.8595C57.1263 26.2999 57.0657 25.6841 57.1838 25.09C57.302 24.496 57.5937 23.9503 58.022 23.522C58.4503 23.0937 58.996 22.802 59.59 22.6838C60.1841 22.5657 60.7999 22.6263 61.3595 22.8581C61.9191 23.0899 62.3974 23.4824 62.7339 23.9861C63.0704 24.4897 63.25 25.0818 63.25 25.6875C63.2491 26.4995 62.9262 27.2779 62.3521 27.8521C61.7779 28.4262 60.9995 28.7491 60.1875 28.75Z" fill="#1A68FA"/>
<path d="M68.5 28.75C67.8943 28.75 67.3022 28.5704 66.7986 28.2339C66.2949 27.8974 65.9024 27.4191 65.6706 26.8595C65.4388 26.2999 65.3782 25.6841 65.4963 25.09C65.6145 24.496 65.9062 23.9503 66.3345 23.522C66.7628 23.0937 67.3085 22.802 67.9025 22.6838C68.4966 22.5657 69.1124 22.6263 69.672 22.8581C70.2316 23.0899 70.7099 23.4824 71.0464 23.9861C71.3829 24.4897 71.5625 25.0818 71.5625 25.6875C71.5616 26.4995 71.2387 27.2779 70.6646 27.8521C70.0904 28.4262 69.312 28.7491 68.5 28.75Z" fill="#1A68FA"/>
<path d="M76.8125 28.75C76.2068 28.75 75.6147 28.5704 75.1111 28.2339C74.6074 27.8974 74.2149 27.4191 73.9831 26.8595C73.7513 26.2999 73.6907 25.6841 73.8088 25.09C73.927 24.496 74.2187 23.9503 74.647 23.522C75.0753 23.0937 75.621 22.802 76.215 22.6838C76.8091 22.5657 77.4249 22.6263 77.9845 22.8581C78.5441 23.0899 79.0224 23.4824 79.3589 23.9861C79.6954 24.4897 79.875 25.0818 79.875 25.6875C79.8741 26.4995 79.5512 27.2779 78.9771 27.8521C78.4029 28.4262 77.6245 28.7491 76.8125 28.75Z" fill="#1A68FA"/>
<path d="M60.1875 37.0625C59.5818 37.0625 58.9897 36.8829 58.4861 36.5464C57.9824 36.2099 57.5899 35.7316 57.3581 35.172C57.1263 34.6124 57.0657 33.9966 57.1838 33.4025C57.302 32.8085 57.5937 32.2628 58.022 31.8345C58.4503 31.4062 58.996 31.1145 59.59 30.9963C60.1841 30.8782 60.7999 30.9388 61.3595 31.1706C61.9191 31.4024 62.3974 31.7949 62.7339 32.2986C63.0704 32.8022 63.25 33.3943 63.25 34C63.2491 34.812 62.9262 35.5904 62.3521 36.1646C61.7779 36.7387 60.9995 37.0616 60.1875 37.0625Z" fill="#1A68FA"/>
<path d="M68.5 37.0625C67.8943 37.0625 67.3022 36.8829 66.7986 36.5464C66.2949 36.2099 65.9024 35.7316 65.6706 35.172C65.4388 34.6124 65.3782 33.9966 65.4963 33.4025C65.6145 32.8085 65.9062 32.2628 66.3345 31.8345C66.7628 31.4062 67.3085 31.1145 67.9025 30.9963C68.4966 30.8782 69.1124 30.9388 69.672 31.1706C70.2316 31.4024 70.7099 31.7949 71.0464 32.2986C71.3829 32.8022 71.5625 33.3943 71.5625 34C71.5616 34.812 71.2387 35.5904 70.6646 36.1646C70.0904 36.7387 69.312 37.0616 68.5 37.0625Z" fill="#1A68FA"/>
<path d="M76.8125 37.0625C76.2068 37.0625 75.6147 36.8829 75.1111 36.5464C74.6074 36.2099 74.2149 35.7316 73.9831 35.172C73.7513 34.6124 73.6907 33.9966 73.8088 33.4025C73.927 32.8085 74.2187 32.2628 74.647 31.8345C75.0753 31.4062 75.621 31.1145 76.215 30.9963C76.8091 30.8782 77.4249 30.9388 77.9845 31.1706C78.5441 31.4024 79.0224 31.7949 79.3589 32.2986C79.6954 32.8022 79.875 33.3943 79.875 34C79.8741 34.812 79.5512 35.5904 78.9771 36.1646C78.4029 36.7387 77.6245 37.0616 76.8125 37.0625Z" fill="#1A68FA"/>
<path d="M60.1875 45.375C59.5818 45.375 58.9897 45.1954 58.4861 44.8589C57.9824 44.5224 57.5899 44.0441 57.3581 43.4845C57.1263 42.9249 57.0657 42.3091 57.1838 41.715C57.302 41.121 57.5937 40.5753 58.022 40.147C58.4503 39.7187 58.996 39.427 59.59 39.3088C60.1841 39.1907 60.7999 39.2513 61.3595 39.4831C61.9191 39.7149 62.3974 40.1074 62.7339 40.6111C63.0704 41.1147 63.25 41.7068 63.25 42.3125C63.2491 43.1245 62.9262 43.9029 62.3521 44.4771C61.7779 45.0512 60.9995 45.3741 60.1875 45.375Z" fill="#1A68FA"/>
<path d="M68.5 45.375C67.8943 45.375 67.3022 45.1954 66.7986 44.8589C66.2949 44.5224 65.9024 44.0441 65.6706 43.4845C65.4388 42.9249 65.3782 42.3091 65.4963 41.715C65.6145 41.121 65.9062 40.5753 66.3345 40.147C66.7628 39.7187 67.3085 39.427 67.9025 39.3088C68.4966 39.1907 69.1124 39.2513 69.672 39.4831C70.2316 39.7149 70.7099 40.1074 71.0464 40.6111C71.3829 41.1147 71.5625 41.7068 71.5625 42.3125C71.5616 43.1245 71.2387 43.9029 70.6646 44.4771C70.0904 45.0512 69.312 45.3741 68.5 45.375Z" fill="#1A68FA"/>
<path d="M76.8125 45.375C76.2068 45.375 75.6147 45.1954 75.1111 44.8589C74.6074 44.5224 74.2149 44.0441 73.9831 43.4845C73.7513 42.9249 73.6907 42.3091 73.8088 41.715C73.927 41.121 74.2187 40.5753 74.647 40.147C75.0753 39.7187 75.621 39.427 76.215 39.3088C76.8091 39.1907 77.4249 39.2513 77.9845 39.4831C78.5441 39.7149 79.0224 40.1074 79.3589 40.6111C79.6954 41.1147 79.875 41.7068 79.875 42.3125C79.8741 43.1245 79.5512 43.9029 78.9771 44.4771C78.4029 45.0512 77.6245 45.3741 76.8125 45.375Z" fill="#1A68FA"/>
<path d="M21.5386 79V67.832H28.8986V69.704H23.6506V72.408H28.2906V74.28H23.6506V77.128H28.8986V79H21.5386ZM30.1243 79L32.9723 74.76L30.1883 70.648H32.5243L34.2523 73.416H34.3163L36.0283 70.648H38.2043L35.3723 74.792L38.2203 79H35.8843L34.1243 76.12H34.0603L32.3003 79H30.1243ZM39.7074 70.648H41.7554V72.024H41.8194C41.9688 71.544 42.2514 71.1653 42.6674 70.888C43.0834 70.6 43.5688 70.456 44.1234 70.456C45.1901 70.456 46.0008 70.8347 46.5554 71.592C47.1208 72.3387 47.4034 73.4107 47.4034 74.808C47.4034 76.216 47.1208 77.2987 46.5554 78.056C46.0008 78.8133 45.1901 79.192 44.1234 79.192C43.5688 79.192 43.0834 79.048 42.6674 78.76C42.2621 78.472 41.9794 78.088 41.8194 77.608H41.7554V82.2H39.7074V70.648ZM43.4674 77.496C44.0008 77.496 44.4328 77.32 44.7634 76.968C45.0941 76.616 45.2594 76.1413 45.2594 75.544V74.104C45.2594 73.5067 45.0941 73.032 44.7634 72.68C44.4328 72.3173 44.0008 72.136 43.4674 72.136C42.9768 72.136 42.5661 72.2587 42.2354 72.504C41.9154 72.7493 41.7554 73.0747 41.7554 73.48V76.136C41.7554 76.5733 41.9154 76.9093 42.2354 77.144C42.5661 77.3787 42.9768 77.496 43.4674 77.496ZM51.3492 79C50.6452 79 50.1279 78.824 49.7972 78.472C49.4665 78.12 49.3012 77.624 49.3012 76.984V67.16H51.3492V77.368H52.4532V79H51.3492ZM57.3163 79.192C56.719 79.192 56.1803 79.0907 55.7003 78.888C55.231 78.6853 54.8256 78.392 54.4843 78.008C54.1536 77.624 53.8976 77.1653 53.7163 76.632C53.535 76.088 53.4443 75.48 53.4443 74.808C53.4443 74.136 53.535 73.5333 53.7163 73C53.8976 72.4667 54.1536 72.0133 54.4843 71.64C54.8256 71.256 55.231 70.9627 55.7003 70.76C56.1803 70.5573 56.719 70.456 57.3163 70.456C57.9136 70.456 58.4523 70.5573 58.9323 70.76C59.4123 70.9627 59.8176 71.256 60.1483 71.64C60.4896 72.0133 60.751 72.4667 60.9323 73C61.1136 73.5333 61.2043 74.136 61.2043 74.808C61.2043 75.48 61.1136 76.088 60.9323 76.632C60.751 77.1653 60.4896 77.624 60.1483 78.008C59.8176 78.392 59.4123 78.6853 58.9323 78.888C58.4523 79.0907 57.9136 79.192 57.3163 79.192ZM57.3163 77.544C57.8603 77.544 58.287 77.3787 58.5963 77.048C58.9056 76.7173 59.0603 76.232 59.0603 75.592V74.04C59.0603 73.4107 58.9056 72.9307 58.5963 72.6C58.287 72.2693 57.8603 72.104 57.3163 72.104C56.783 72.104 56.3616 72.2693 56.0523 72.6C55.743 72.9307 55.5883 73.4107 55.5883 74.04V75.592C55.5883 76.232 55.743 76.7173 56.0523 77.048C56.3616 77.3787 56.783 77.544 57.3163 77.544ZM63.0199 79V70.648H65.0679V72.376H65.1479C65.2013 72.152 65.2813 71.9387 65.3879 71.736C65.5053 71.5227 65.6546 71.336 65.8359 71.176C66.0173 71.016 66.2306 70.888 66.4759 70.792C66.7319 70.696 67.0253 70.648 67.3559 70.648H67.8039V72.584H67.1639C66.4706 72.584 65.9479 72.6853 65.5959 72.888C65.2439 73.0907 65.0679 73.4213 65.0679 73.88V79H63.0199ZM72.5991 79.192C71.9804 79.192 71.4257 79.0907 70.9351 78.888C70.4551 78.6747 70.0444 78.3813 69.7031 78.008C69.3724 77.624 69.1164 77.1653 68.9351 76.632C68.7537 76.088 68.6631 75.48 68.6631 74.808C68.6631 74.1467 68.7484 73.5493 68.9191 73.016C69.1004 72.4827 69.3564 72.0293 69.6871 71.656C70.0177 71.272 70.4231 70.9787 70.9031 70.776C71.3831 70.5627 71.9271 70.456 72.5351 70.456C73.1857 70.456 73.7511 70.568 74.2311 70.792C74.7111 71.016 75.1057 71.32 75.4151 71.704C75.7244 72.088 75.9537 72.536 76.1031 73.048C76.2631 73.5493 76.3431 74.088 76.3431 74.664V75.336H70.7911V75.544C70.7911 76.152 70.9617 76.6427 71.3031 77.016C71.6444 77.3787 72.1511 77.56 72.8231 77.56C73.3351 77.56 73.7511 77.4533 74.0711 77.24C74.4017 77.0267 74.6951 76.7547 74.9511 76.424L76.0551 77.656C75.7137 78.136 75.2444 78.5147 74.6471 78.792C74.0604 79.0587 73.3777 79.192 72.5991 79.192ZM72.5671 71.992C72.0231 71.992 71.5911 72.1733 71.2711 72.536C70.9511 72.8987 70.7911 73.368 70.7911 73.944V74.072H74.2151V73.928C74.2151 73.352 74.0711 72.888 73.7831 72.536C73.5057 72.1733 73.1004 71.992 72.5671 71.992ZM88.0702 79C87.6222 79 87.2649 78.872 86.9982 78.616C86.7422 78.3493 86.5822 77.9973 86.5182 77.56H86.4222C86.2835 78.104 86.0009 78.5147 85.5742 78.792C85.1475 79.0587 84.6195 79.192 83.9902 79.192C83.1369 79.192 82.4809 78.968 82.0222 78.52C81.5635 78.072 81.3342 77.4747 81.3342 76.728C81.3342 75.864 81.6435 75.224 82.2622 74.808C82.8809 74.3813 83.7609 74.168 84.9022 74.168H86.3262V73.56C86.3262 73.0907 86.2035 72.728 85.9582 72.472C85.7129 72.216 85.3182 72.088 84.7742 72.088C84.2942 72.088 83.9049 72.1947 83.6062 72.408C83.3182 72.6107 83.0729 72.856 82.8702 73.144L81.6542 72.056C81.9635 71.576 82.3742 71.192 82.8862 70.904C83.3982 70.6053 84.0755 70.456 84.9182 70.456C86.0489 70.456 86.9075 70.712 87.4942 71.224C88.0809 71.736 88.3742 72.472 88.3742 73.432V77.368H89.2062V79H88.0702ZM84.6782 77.704C85.1369 77.704 85.5262 77.6027 85.8462 77.4C86.1662 77.1973 86.3262 76.8987 86.3262 76.504V75.4H85.0142C83.9475 75.4 83.4142 75.7413 83.4142 76.424V76.696C83.4142 77.0373 83.5209 77.2933 83.7342 77.464C83.9582 77.624 84.2729 77.704 84.6782 77.704ZM92.9117 79C92.2077 79 91.6904 78.824 91.3597 78.472C91.029 78.12 90.8637 77.624 90.8637 76.984V67.16H92.9117V77.368H94.0157V79H92.9117ZM97.5054 79C96.8014 79 96.2841 78.824 95.9534 78.472C95.6228 78.12 95.4574 77.624 95.4574 76.984V67.16H97.5054V77.368H98.6094V79H97.5054ZM111.766 77.096L110.63 75.96L111.718 74.872L112.454 74.248L112.438 74.184L111.078 74.264H104.086V72.568H111.078L112.438 72.648L112.454 72.584L111.718 71.96L110.63 70.872L111.766 69.736L115.446 73.416L111.766 77.096Z" fill="#1A68FA"/>
</svg>
