<svg width="124" height="106" viewBox="0 0 124 106" fill="none" xmlns="http://www.w3.org/2000/svg">
<path d="M0 0H124V106H0V0Z" fill="white"/>
<path d="M70.3125 26.125H53.7969C52.9556 26.125 52.1489 26.4592 51.554 27.054C50.9592 27.6489 50.625 28.4556 50.625 29.2969V37.9375C50.625 38.7497 50.9477 39.5287 51.522 40.103C52.0963 40.6773 52.8753 41 53.6875 41H54.125V43.17C54.125 43.7548 54.3573 44.3157 54.7708 44.7292C55.1843 45.1427 55.7452 45.375 56.33 45.375H67.67C68.2548 45.375 68.8157 45.1427 69.2292 44.7292C69.6427 44.3157 69.875 43.7548 69.875 43.17V41H70.3125C71.1247 41 71.9037 40.6773 72.478 40.103C73.0523 39.5287 73.375 38.7497 73.375 37.9375V29.1875C73.375 28.3753 73.0523 27.5963 72.478 27.022C71.9037 26.4477 71.1247 26.125 70.3125 26.125ZM68.125 43.17C68.1246 43.2905 68.0765 43.406 67.9913 43.4913C67.906 43.5765 67.7905 43.6246 67.67 43.625H56.33C56.2095 43.6246 56.094 43.5765 56.0087 43.4913C55.9235 43.406 55.8754 43.2905 55.875 43.17V34.455C55.8754 34.3345 55.9235 34.219 56.0087 34.1337C56.094 34.0485 56.2095 34.0004 56.33 34H67.67C67.7905 34.0004 67.906 34.0485 67.9913 34.1337C68.0765 34.219 68.1246 34.3345 68.125 34.455V43.17ZM69.5469 31.3706C69.2792 31.3921 69.0113 31.331 68.7795 31.1955C68.5476 31.06 68.3629 30.8566 68.2502 30.6128C68.1376 30.369 68.1025 30.0965 68.1496 29.8321C68.1967 29.5678 68.3237 29.3242 68.5136 29.1343C68.7035 28.9444 68.9471 28.8173 69.2115 28.7702C69.4759 28.7231 69.7484 28.7582 69.9922 28.8709C70.236 28.9835 70.4394 29.1682 70.5749 29.4001C70.7104 29.6319 70.7715 29.8998 70.75 30.1675C70.725 30.4783 70.5902 30.77 70.3698 30.9904C70.1494 31.2109 69.8576 31.3456 69.5469 31.3706Z" fill="black"/>
<path d="M66.8124 22.625H57.1874C56.4513 22.6261 55.7402 22.8919 55.1838 23.3738C54.6274 23.8557 54.2628 24.5216 54.1566 25.25H69.8432C69.737 24.5216 69.3725 23.8557 68.8161 23.3738C68.2597 22.8919 67.5485 22.6261 66.8124 22.625Z" fill="black"/>
<path d="M24.6217 72.344C25.2617 72.344 25.731 72.216 26.0297 71.96C26.339 71.6933 26.4937 71.3573 26.4937 70.952V70.84C26.4937 70.3813 26.3444 70.024 26.0457 69.768C25.7577 69.5013 25.3577 69.368 24.8457 69.368C24.355 69.368 23.9177 69.4853 23.5337 69.72C23.1604 69.9547 22.835 70.2853 22.5577 70.712L21.2137 69.496C21.4057 69.24 21.6137 69 21.8377 68.776C22.0724 68.5413 22.339 68.344 22.6377 68.184C22.9364 68.0133 23.2724 67.88 23.6457 67.784C24.019 67.688 24.4404 67.64 24.9097 67.64C25.475 67.64 25.987 67.7093 26.4457 67.848C26.915 67.976 27.315 68.168 27.6457 68.424C27.987 68.68 28.2484 68.9893 28.4297 69.352C28.611 69.704 28.7017 70.104 28.7017 70.552C28.7017 70.9147 28.643 71.24 28.5257 71.528C28.419 71.816 28.2644 72.0667 28.0617 72.28C27.8697 72.4933 27.6404 72.6693 27.3737 72.808C27.1177 72.936 26.8457 73.032 26.5577 73.096V73.192C26.8777 73.256 27.1817 73.3573 27.4697 73.496C27.7577 73.6347 28.003 73.8213 28.2057 74.056C28.419 74.28 28.5844 74.5467 28.7017 74.856C28.8297 75.1653 28.8937 75.5173 28.8937 75.912C28.8937 76.4027 28.7924 76.8507 28.5897 77.256C28.3977 77.6613 28.1204 78.008 27.7577 78.296C27.395 78.584 26.963 78.808 26.4617 78.968C25.9604 79.1173 25.4004 79.192 24.7817 79.192C24.2377 79.192 23.7577 79.1333 23.3417 79.016C22.9257 78.9093 22.5577 78.76 22.2377 78.568C21.9284 78.376 21.6564 78.1573 21.4217 77.912C21.187 77.656 20.9844 77.3893 20.8137 77.112L22.3657 75.928C22.4937 76.152 22.6324 76.36 22.7817 76.552C22.931 76.7333 23.1017 76.8933 23.2937 77.032C23.4857 77.1707 23.7044 77.2773 23.9497 77.352C24.195 77.4267 24.4724 77.464 24.7817 77.464C25.4004 77.464 25.875 77.3147 26.2057 77.016C26.5364 76.7173 26.7017 76.3067 26.7017 75.784V75.672C26.7017 75.16 26.5204 74.7707 26.1577 74.504C25.8057 74.2373 25.2937 74.104 24.6217 74.104H23.5177V72.344H24.6217ZM31.3354 67.832H35.3994C36.1248 67.832 36.7808 67.9493 37.3674 68.184C37.9648 68.4187 38.4714 68.7707 38.8874 69.24C39.3141 69.6987 39.6394 70.28 39.8634 70.984C40.0981 71.6773 40.2154 72.488 40.2154 73.416C40.2154 74.344 40.0981 75.16 39.8634 75.864C39.6394 76.5573 39.3141 77.1387 38.8874 77.608C38.4714 78.0667 37.9648 78.4133 37.3674 78.648C36.7808 78.8827 36.1248 79 35.3994 79H31.3354V67.832ZM35.3994 77.128C36.1888 77.128 36.8128 76.8987 37.2714 76.44C37.7408 75.9707 37.9754 75.256 37.9754 74.296V72.536C37.9754 71.576 37.7408 70.8667 37.2714 70.408C36.8128 69.9387 36.1888 69.704 35.3994 69.704H33.4474V77.128H35.3994ZM46.1479 79V67.832H51.1719C51.6839 67.832 52.1426 67.9173 52.5479 68.088C52.9639 68.248 53.3159 68.4827 53.6039 68.792C53.8919 69.0907 54.1106 69.4533 54.2599 69.88C54.4093 70.3067 54.4839 70.776 54.4839 71.288C54.4839 71.8107 54.4093 72.2853 54.2599 72.712C54.1106 73.128 53.8919 73.4907 53.6039 73.8C53.3159 74.0987 52.9639 74.3333 52.5479 74.504C52.1426 74.664 51.6839 74.744 51.1719 74.744H48.2599V79H46.1479ZM48.2599 72.92H50.9799C51.3853 72.92 51.7053 72.8133 51.9399 72.6C52.1746 72.376 52.2919 72.0613 52.2919 71.656V70.92C52.2919 70.5147 52.1746 70.2053 51.9399 69.992C51.7053 69.7787 51.3853 69.672 50.9799 69.672H48.2599V72.92ZM56.1137 79V70.648H58.1617V72.376H58.2417C58.295 72.152 58.375 71.9387 58.4817 71.736C58.599 71.5227 58.7484 71.336 58.9297 71.176C59.111 71.016 59.3244 70.888 59.5697 70.792C59.8257 70.696 60.119 70.648 60.4497 70.648H60.8977V72.584H60.2577C59.5644 72.584 59.0417 72.6853 58.6897 72.888C58.3377 73.0907 58.1617 73.4213 58.1617 73.88V79H56.1137ZM63.4189 69.432C62.9923 69.432 62.6829 69.336 62.4909 69.144C62.3096 68.952 62.2189 68.7067 62.2189 68.408V68.088C62.2189 67.7893 62.3096 67.544 62.4909 67.352C62.6829 67.16 62.9923 67.064 63.4189 67.064C63.8349 67.064 64.1389 67.16 64.3309 67.352C64.5229 67.544 64.6189 67.7893 64.6189 68.088V68.408C64.6189 68.7067 64.5229 68.952 64.3309 69.144C64.1389 69.336 63.8349 69.432 63.4189 69.432ZM62.3949 70.648H64.4429V79H62.3949V70.648ZM66.8168 79V70.648H68.8648V72.04H68.9448C69.1155 71.592 69.3821 71.2187 69.7448 70.92C70.1181 70.6107 70.6301 70.456 71.2808 70.456C72.1448 70.456 72.8061 70.7387 73.2648 71.304C73.7235 71.8693 73.9528 72.6747 73.9528 73.72V79H71.9048V73.928C71.9048 73.3307 71.7981 72.8827 71.5848 72.584C71.3715 72.2853 71.0195 72.136 70.5288 72.136C70.3155 72.136 70.1075 72.168 69.9048 72.232C69.7128 72.2853 69.5368 72.3707 69.3768 72.488C69.2275 72.5947 69.1048 72.7333 69.0088 72.904C68.9128 73.064 68.8648 73.256 68.8648 73.48V79H66.8168ZM78.8311 79C78.1271 79 77.5884 78.8187 77.2151 78.456C76.8524 78.0827 76.6711 77.5547 76.6711 76.872V72.28H75.4391V70.648H76.0791C76.3884 70.648 76.5964 70.5787 76.7031 70.44C76.8204 70.2907 76.8791 70.072 76.8791 69.784V68.36H78.7191V70.648H80.4311V72.28H78.7191V77.368H80.3031V79H78.8311ZM83.2314 69.432C82.8048 69.432 82.4954 69.336 82.3034 69.144C82.1221 68.952 82.0314 68.7067 82.0314 68.408V68.088C82.0314 67.7893 82.1221 67.544 82.3034 67.352C82.4954 67.16 82.8048 67.064 83.2314 67.064C83.6474 67.064 83.9514 67.16 84.1434 67.352C84.3354 67.544 84.4314 67.7893 84.4314 68.088V68.408C84.4314 68.7067 84.3354 68.952 84.1434 69.144C83.9514 69.336 83.6474 69.432 83.2314 69.432ZM82.2074 70.648H84.2554V79H82.2074V70.648ZM86.6293 79V70.648H88.6773V72.04H88.7573C88.928 71.592 89.1946 71.2187 89.5573 70.92C89.9306 70.6107 90.4426 70.456 91.0933 70.456C91.9573 70.456 92.6186 70.7387 93.0773 71.304C93.536 71.8693 93.7653 72.6747 93.7653 73.72V79H91.7173V73.928C91.7173 73.3307 91.6106 72.8827 91.3973 72.584C91.184 72.2853 90.832 72.136 90.3413 72.136C90.128 72.136 89.92 72.168 89.7173 72.232C89.5253 72.2853 89.3493 72.3707 89.1893 72.488C89.04 72.5947 88.9173 72.7333 88.8213 72.904C88.7253 73.064 88.6773 73.256 88.6773 73.48V79H86.6293ZM103.572 79.704C103.572 80.1413 103.492 80.5253 103.332 80.856C103.182 81.1973 102.932 81.48 102.58 81.704C102.228 81.928 101.774 82.0987 101.22 82.216C100.665 82.3333 99.9876 82.392 99.1876 82.392C98.4836 82.392 97.8862 82.344 97.3956 82.248C96.9049 82.1627 96.4996 82.0347 96.1796 81.864C95.8702 81.704 95.6462 81.5013 95.5076 81.256C95.3689 81.0107 95.2996 80.7333 95.2996 80.424C95.2996 79.9547 95.4276 79.5867 95.6836 79.32C95.9502 79.064 96.3182 78.8987 96.7876 78.824V78.648C96.4462 78.5627 96.1796 78.3973 95.9876 78.152C95.8062 77.896 95.7156 77.5973 95.7156 77.256C95.7156 77.0427 95.7582 76.856 95.8436 76.696C95.9289 76.5253 96.0409 76.3813 96.1796 76.264C96.3289 76.1467 96.4942 76.0507 96.6756 75.976C96.8569 75.8907 97.0489 75.8267 97.2516 75.784V75.72C96.7396 75.4853 96.3556 75.16 96.0996 74.744C95.8542 74.328 95.7316 73.8427 95.7316 73.288C95.7316 72.4347 96.0249 71.752 96.6116 71.24C97.1982 70.7173 98.0569 70.456 99.1876 70.456C99.4436 70.456 99.6942 70.472 99.9396 70.504C100.196 70.536 100.43 70.5893 100.644 70.664V70.392C100.644 69.5813 101.038 69.176 101.828 69.176H103.124V70.744H101.348V70.968C101.785 71.2133 102.11 71.5333 102.324 71.928C102.537 72.3227 102.644 72.776 102.644 73.288C102.644 74.1307 102.35 74.808 101.764 75.32C101.188 75.832 100.329 76.088 99.1876 76.088C98.6969 76.088 98.2702 76.04 97.9076 75.944C97.7476 76.0187 97.6089 76.12 97.4916 76.248C97.3742 76.3653 97.3156 76.5147 97.3156 76.696C97.3156 77.112 97.6782 77.32 98.4036 77.32H100.644C101.668 77.32 102.409 77.5333 102.868 77.96C103.337 78.376 103.572 78.9573 103.572 79.704ZM101.652 79.944C101.652 79.6773 101.545 79.4693 101.332 79.32C101.118 79.1707 100.75 79.096 100.228 79.096H97.3796C97.0916 79.3093 96.9476 79.5973 96.9476 79.96C96.9476 80.28 97.0809 80.5307 97.3476 80.712C97.6142 80.8933 98.0676 80.984 98.7076 80.984H99.7316C100.404 80.984 100.889 80.8987 101.188 80.728C101.497 80.5573 101.652 80.296 101.652 79.944ZM99.1876 74.696C100.19 74.696 100.692 74.2693 100.692 73.416V73.144C100.692 72.2907 100.19 71.864 99.1876 71.864C98.1849 71.864 97.6836 72.2907 97.6836 73.144V73.416C97.6836 74.2693 98.1849 74.696 99.1876 74.696Z" fill="black"/>
</svg>
