<svg width="196" height="106" viewBox="0 0 196 106" fill="none" xmlns="http://www.w3.org/2000/svg">
<path d="M0 0H196V106H0V0Z" fill="white"/>
<g clip-path="url(#clip0)">
<path d="M111.816 28.137C111.816 25.676 110.006 23.6963 107.769 23.6963C104.739 23.5547 101.65 23.5 98.4919 23.5H97.5076C94.3576 23.5 91.2623 23.5547 88.2326 23.6969C86.0013 23.6969 84.1912 25.6875 84.1912 28.1484C84.0544 30.0948 83.9965 32.0416 83.9998 33.9885C83.9943 35.9354 84.0563 37.8841 84.1857 39.8346C84.1857 42.2955 85.9958 44.2916 88.2271 44.2916C91.4099 44.4393 94.6748 44.5049 97.9943 44.4995C101.319 44.5104 104.575 44.4411 107.761 44.2916C109.998 44.2916 111.808 42.2955 111.808 39.8346C111.94 37.8823 112 35.9354 111.994 33.983C112.007 32.0362 111.947 30.0875 111.816 28.137ZM95.3201 39.3534V28.6073L103.25 33.9776L95.3201 39.3534Z" fill="black"/>
</g>
<path d="M24.2965 79V74.616L20.4725 67.832H22.8405L25.4165 72.552H25.4485L27.9605 67.832H30.2645L26.4245 74.6V79H24.2965ZM34.0116 79.192C33.4143 79.192 32.8756 79.0907 32.3956 78.888C31.9263 78.6853 31.521 78.392 31.1796 78.008C30.849 77.624 30.593 77.1653 30.4116 76.632C30.2303 76.088 30.1396 75.48 30.1396 74.808C30.1396 74.136 30.2303 73.5333 30.4116 73C30.593 72.4667 30.849 72.0133 31.1796 71.64C31.521 71.256 31.9263 70.9627 32.3956 70.76C32.8756 70.5573 33.4143 70.456 34.0116 70.456C34.609 70.456 35.1476 70.5573 35.6276 70.76C36.1076 70.9627 36.513 71.256 36.8436 71.64C37.185 72.0133 37.4463 72.4667 37.6276 73C37.809 73.5333 37.8996 74.136 37.8996 74.808C37.8996 75.48 37.809 76.088 37.6276 76.632C37.4463 77.1653 37.185 77.624 36.8436 78.008C36.513 78.392 36.1076 78.6853 35.6276 78.888C35.1476 79.0907 34.609 79.192 34.0116 79.192ZM34.0116 77.544C34.5556 77.544 34.9823 77.3787 35.2916 77.048C35.601 76.7173 35.7556 76.232 35.7556 75.592V74.04C35.7556 73.4107 35.601 72.9307 35.2916 72.6C34.9823 72.2693 34.5556 72.104 34.0116 72.104C33.4783 72.104 33.057 72.2693 32.7476 72.6C32.4383 72.9307 32.2836 73.4107 32.2836 74.04V75.592C32.2836 76.232 32.4383 76.7173 32.7476 77.048C33.057 77.3787 33.4783 77.544 34.0116 77.544ZM44.7073 77.608H44.6273C44.5526 77.8213 44.4513 78.024 44.3233 78.216C44.2059 78.3973 44.0513 78.5627 43.8593 78.712C43.6779 78.8613 43.4539 78.9787 43.1873 79.064C42.9313 79.1493 42.6326 79.192 42.2913 79.192C41.4273 79.192 40.7659 78.9093 40.3073 78.344C39.8486 77.7787 39.6193 76.9733 39.6193 75.928V70.648H41.6673V75.72C41.6673 76.296 41.7793 76.7387 42.0033 77.048C42.2273 77.3467 42.5846 77.496 43.0753 77.496C43.2779 77.496 43.4753 77.4693 43.6673 77.416C43.8699 77.3627 44.0459 77.2827 44.1953 77.176C44.3446 77.0587 44.4673 76.92 44.5633 76.76C44.6593 76.5893 44.7073 76.392 44.7073 76.168V70.648H46.7552V79H44.7073V77.608ZM52.9148 69.704V79H50.8028V69.704H47.6348V67.832H56.0828V69.704H52.9148ZM61.9416 77.608H61.8616C61.787 77.8213 61.6856 78.024 61.5576 78.216C61.4403 78.3973 61.2856 78.5627 61.0936 78.712C60.9123 78.8613 60.6883 78.9787 60.4216 79.064C60.1656 79.1493 59.867 79.192 59.5256 79.192C58.6616 79.192 58.0003 78.9093 57.5416 78.344C57.083 77.7787 56.8536 76.9733 56.8536 75.928V70.648H58.9016V75.72C58.9016 76.296 59.0136 76.7387 59.2376 77.048C59.4616 77.3467 59.819 77.496 60.3096 77.496C60.5123 77.496 60.7096 77.4693 60.9016 77.416C61.1043 77.3627 61.2803 77.2827 61.4296 77.176C61.579 77.0587 61.7016 76.92 61.7976 76.76C61.8936 76.5893 61.9416 76.392 61.9416 76.168V70.648H63.9896V79H61.9416V77.608ZM66.3559 67.16H68.4039V72.024H68.4679C68.6172 71.544 68.8999 71.1653 69.3159 70.888C69.7319 70.6 70.2172 70.456 70.7719 70.456C71.8385 70.456 72.6492 70.8347 73.2039 71.592C73.7692 72.3387 74.0519 73.4107 74.0519 74.808C74.0519 76.216 73.7692 77.2987 73.2039 78.056C72.6492 78.8133 71.8385 79.192 70.7719 79.192C70.2172 79.192 69.7319 79.048 69.3159 78.76C68.9105 78.472 68.6279 78.088 68.4679 77.608H68.4039V79H66.3559V67.16ZM70.1159 77.496C70.6492 77.496 71.0812 77.32 71.4119 76.968C71.7425 76.616 71.9079 76.1413 71.9079 75.544V74.104C71.9079 73.5067 71.7425 73.032 71.4119 72.68C71.0812 72.3173 70.6492 72.136 70.1159 72.136C69.6252 72.136 69.2145 72.2587 68.8839 72.504C68.5639 72.7493 68.4039 73.0747 68.4039 73.48V76.136C68.4039 76.5733 68.5639 76.9093 68.8839 77.144C69.2145 77.3787 69.6252 77.496 70.1159 77.496ZM79.3256 79.192C78.707 79.192 78.1523 79.0907 77.6616 78.888C77.1816 78.6747 76.771 78.3813 76.4296 78.008C76.099 77.624 75.843 77.1653 75.6616 76.632C75.4803 76.088 75.3896 75.48 75.3896 74.808C75.3896 74.1467 75.475 73.5493 75.6456 73.016C75.827 72.4827 76.083 72.0293 76.4136 71.656C76.7443 71.272 77.1496 70.9787 77.6296 70.776C78.1096 70.5627 78.6536 70.456 79.2616 70.456C79.9123 70.456 80.4776 70.568 80.9576 70.792C81.4376 71.016 81.8323 71.32 82.1416 71.704C82.451 72.088 82.6803 72.536 82.8296 73.048C82.9896 73.5493 83.0696 74.088 83.0696 74.664V75.336H77.5176V75.544C77.5176 76.152 77.6883 76.6427 78.0296 77.016C78.371 77.3787 78.8776 77.56 79.5496 77.56C80.0616 77.56 80.4776 77.4533 80.7976 77.24C81.1283 77.0267 81.4216 76.7547 81.6776 76.424L82.7816 77.656C82.4403 78.136 81.971 78.5147 81.3736 78.792C80.787 79.0587 80.1043 79.192 79.3256 79.192ZM79.2936 71.992C78.7496 71.992 78.3176 72.1733 77.9976 72.536C77.6776 72.8987 77.5176 73.368 77.5176 73.944V74.072H80.9416V73.928C80.9416 73.352 80.7976 72.888 80.5096 72.536C80.2323 72.1733 79.827 71.992 79.2936 71.992ZM88.7808 79V67.832H96.1408V69.704H90.8928V72.408H95.5328V74.28H90.8928V77.128H96.1408V79H88.7808ZM98.2465 79V70.648H100.295V72.04H100.375C100.545 71.592 100.812 71.2187 101.174 70.92C101.548 70.6107 102.06 70.456 102.711 70.456C103.575 70.456 104.236 70.7387 104.695 71.304C105.153 71.8693 105.383 72.6747 105.383 73.72V79H103.335V73.928C103.335 73.3307 103.228 72.8827 103.015 72.584C102.801 72.2853 102.449 72.136 101.959 72.136C101.745 72.136 101.537 72.168 101.335 72.232C101.143 72.2853 100.967 72.3707 100.807 72.488C100.657 72.5947 100.535 72.7333 100.439 72.904C100.343 73.064 100.295 73.256 100.295 73.48V79H98.2465ZM115.189 79.704C115.189 80.1413 115.109 80.5253 114.949 80.856C114.799 81.1973 114.549 81.48 114.197 81.704C113.845 81.928 113.391 82.0987 112.837 82.216C112.282 82.3333 111.605 82.392 110.805 82.392C110.101 82.392 109.503 82.344 109.013 82.248C108.522 82.1627 108.117 82.0347 107.797 81.864C107.487 81.704 107.263 81.5013 107.125 81.256C106.986 81.0107 106.917 80.7333 106.917 80.424C106.917 79.9547 107.045 79.5867 107.301 79.32C107.567 79.064 107.935 78.8987 108.405 78.824V78.648C108.063 78.5627 107.797 78.3973 107.605 78.152C107.423 77.896 107.333 77.5973 107.333 77.256C107.333 77.0427 107.375 76.856 107.461 76.696C107.546 76.5253 107.658 76.3813 107.797 76.264C107.946 76.1467 108.111 76.0507 108.293 75.976C108.474 75.8907 108.666 75.8267 108.869 75.784V75.72C108.357 75.4853 107.973 75.16 107.717 74.744C107.471 74.328 107.349 73.8427 107.349 73.288C107.349 72.4347 107.642 71.752 108.229 71.24C108.815 70.7173 109.674 70.456 110.805 70.456C111.061 70.456 111.311 70.472 111.557 70.504C111.813 70.536 112.047 70.5893 112.261 70.664V70.392C112.261 69.5813 112.655 69.176 113.445 69.176H114.741V70.744H112.965V70.968C113.402 71.2133 113.727 71.5333 113.941 71.928C114.154 72.3227 114.261 72.776 114.261 73.288C114.261 74.1307 113.967 74.808 113.381 75.32C112.805 75.832 111.946 76.088 110.805 76.088C110.314 76.088 109.887 76.04 109.525 75.944C109.365 76.0187 109.226 76.12 109.109 76.248C108.991 76.3653 108.933 76.5147 108.933 76.696C108.933 77.112 109.295 77.32 110.021 77.32H112.261C113.285 77.32 114.026 77.5333 114.485 77.96C114.954 78.376 115.189 78.9573 115.189 79.704ZM113.269 79.944C113.269 79.6773 113.162 79.4693 112.949 79.32C112.735 79.1707 112.367 79.096 111.845 79.096H108.997C108.709 79.3093 108.565 79.5973 108.565 79.96C108.565 80.28 108.698 80.5307 108.965 80.712C109.231 80.8933 109.685 80.984 110.325 80.984H111.349C112.021 80.984 112.506 80.8987 112.805 80.728C113.114 80.5573 113.269 80.296 113.269 79.944ZM110.805 74.696C111.807 74.696 112.309 74.2693 112.309 73.416V73.144C112.309 72.2907 111.807 71.864 110.805 71.864C109.802 71.864 109.301 72.2907 109.301 73.144V73.416C109.301 74.2693 109.802 74.696 110.805 74.696ZM117.396 69.432C116.969 69.432 116.66 69.336 116.468 69.144C116.286 68.952 116.196 68.7067 116.196 68.408V68.088C116.196 67.7893 116.286 67.544 116.468 67.352C116.66 67.16 116.969 67.064 117.396 67.064C117.812 67.064 118.116 67.16 118.308 67.352C118.5 67.544 118.596 67.7893 118.596 68.088V68.408C118.596 68.7067 118.5 68.952 118.308 69.144C118.116 69.336 117.812 69.432 117.396 69.432ZM116.372 70.648H118.42V79H116.372V70.648ZM120.793 79V70.648H122.841V72.04H122.921C123.092 71.592 123.359 71.2187 123.721 70.92C124.095 70.6107 124.607 70.456 125.257 70.456C126.121 70.456 126.783 70.7387 127.241 71.304C127.7 71.8693 127.929 72.6747 127.929 73.72V79H125.881V73.928C125.881 73.3307 125.775 72.8827 125.561 72.584C125.348 72.2853 124.996 72.136 124.505 72.136C124.292 72.136 124.084 72.168 123.881 72.232C123.689 72.2853 123.513 72.3707 123.353 72.488C123.204 72.5947 123.081 72.7333 122.985 72.904C122.889 73.064 122.841 73.256 122.841 73.48V79H120.793ZM133.576 79.192C132.957 79.192 132.402 79.0907 131.912 78.888C131.432 78.6747 131.021 78.3813 130.68 78.008C130.349 77.624 130.093 77.1653 129.912 76.632C129.73 76.088 129.64 75.48 129.64 74.808C129.64 74.1467 129.725 73.5493 129.896 73.016C130.077 72.4827 130.333 72.0293 130.664 71.656C130.994 71.272 131.4 70.9787 131.88 70.776C132.36 70.5627 132.904 70.456 133.512 70.456C134.162 70.456 134.728 70.568 135.208 70.792C135.688 71.016 136.082 71.32 136.392 71.704C136.701 72.088 136.93 72.536 137.08 73.048C137.24 73.5493 137.32 74.088 137.32 74.664V75.336H131.768V75.544C131.768 76.152 131.938 76.6427 132.28 77.016C132.621 77.3787 133.128 77.56 133.8 77.56C134.312 77.56 134.728 77.4533 135.048 77.24C135.378 77.0267 135.672 76.7547 135.928 76.424L137.032 77.656C136.69 78.136 136.221 78.5147 135.624 78.792C135.037 79.0587 134.354 79.192 133.576 79.192ZM133.544 71.992C133 71.992 132.568 72.1733 132.248 72.536C131.928 72.8987 131.768 73.368 131.768 73.944V74.072H135.192V73.928C135.192 73.352 135.048 72.888 134.76 72.536C134.482 72.1733 134.077 71.992 133.544 71.992ZM142.498 79.192C141.879 79.192 141.324 79.0907 140.834 78.888C140.354 78.6747 139.943 78.3813 139.602 78.008C139.271 77.624 139.015 77.1653 138.834 76.632C138.652 76.088 138.562 75.48 138.562 74.808C138.562 74.1467 138.647 73.5493 138.818 73.016C138.999 72.4827 139.255 72.0293 139.586 71.656C139.916 71.272 140.322 70.9787 140.802 70.776C141.282 70.5627 141.826 70.456 142.434 70.456C143.084 70.456 143.65 70.568 144.13 70.792C144.61 71.016 145.004 71.32 145.314 71.704C145.623 72.088 145.852 72.536 146.002 73.048C146.162 73.5493 146.242 74.088 146.242 74.664V75.336H140.69V75.544C140.69 76.152 140.86 76.6427 141.202 77.016C141.543 77.3787 142.05 77.56 142.722 77.56C143.234 77.56 143.65 77.4533 143.97 77.24C144.3 77.0267 144.594 76.7547 144.85 76.424L145.954 77.656C145.612 78.136 145.143 78.5147 144.546 78.792C143.959 79.0587 143.276 79.192 142.498 79.192ZM142.466 71.992C141.922 71.992 141.49 72.1733 141.17 72.536C140.85 72.8987 140.69 73.368 140.69 73.944V74.072H144.114V73.928C144.114 73.352 143.97 72.888 143.682 72.536C143.404 72.1733 142.999 71.992 142.466 71.992ZM148.043 79V70.648H150.091V72.376H150.171C150.225 72.152 150.305 71.9387 150.411 71.736C150.529 71.5227 150.678 71.336 150.859 71.176C151.041 71.016 151.254 70.888 151.499 70.792C151.755 70.696 152.049 70.648 152.379 70.648H152.827V72.584H152.187C151.494 72.584 150.971 72.6853 150.619 72.888C150.267 73.0907 150.091 73.4213 150.091 73.88V79H148.043ZM155.349 69.432C154.922 69.432 154.613 69.336 154.421 69.144C154.239 68.952 154.149 68.7067 154.149 68.408V68.088C154.149 67.7893 154.239 67.544 154.421 67.352C154.613 67.16 154.922 67.064 155.349 67.064C155.765 67.064 156.069 67.16 156.261 67.352C156.453 67.544 156.549 67.7893 156.549 68.088V68.408C156.549 68.7067 156.453 68.952 156.261 69.144C156.069 69.336 155.765 69.432 155.349 69.432ZM154.325 70.648H156.373V79H154.325V70.648ZM158.747 79V70.648H160.795V72.04H160.875C161.045 71.592 161.312 71.2187 161.674 70.92C162.048 70.6107 162.56 70.456 163.211 70.456C164.075 70.456 164.736 70.7387 165.195 71.304C165.653 71.8693 165.883 72.6747 165.883 73.72V79H163.835V73.928C163.835 73.3307 163.728 72.8827 163.515 72.584C163.301 72.2853 162.949 72.136 162.459 72.136C162.245 72.136 162.037 72.168 161.835 72.232C161.643 72.2853 161.467 72.3707 161.307 72.488C161.157 72.5947 161.035 72.7333 160.939 72.904C160.843 73.064 160.795 73.256 160.795 73.48V79H158.747ZM175.689 79.704C175.689 80.1413 175.609 80.5253 175.449 80.856C175.299 81.1973 175.049 81.48 174.697 81.704C174.345 81.928 173.891 82.0987 173.337 82.216C172.782 82.3333 172.105 82.392 171.305 82.392C170.601 82.392 170.003 82.344 169.513 82.248C169.022 82.1627 168.617 82.0347 168.297 81.864C167.987 81.704 167.763 81.5013 167.625 81.256C167.486 81.0107 167.417 80.7333 167.417 80.424C167.417 79.9547 167.545 79.5867 167.801 79.32C168.067 79.064 168.435 78.8987 168.905 78.824V78.648C168.563 78.5627 168.297 78.3973 168.105 78.152C167.923 77.896 167.833 77.5973 167.833 77.256C167.833 77.0427 167.875 76.856 167.961 76.696C168.046 76.5253 168.158 76.3813 168.297 76.264C168.446 76.1467 168.611 76.0507 168.793 75.976C168.974 75.8907 169.166 75.8267 169.369 75.784V75.72C168.857 75.4853 168.473 75.16 168.217 74.744C167.971 74.328 167.849 73.8427 167.849 73.288C167.849 72.4347 168.142 71.752 168.729 71.24C169.315 70.7173 170.174 70.456 171.305 70.456C171.561 70.456 171.811 70.472 172.057 70.504C172.313 70.536 172.547 70.5893 172.761 70.664V70.392C172.761 69.5813 173.155 69.176 173.945 69.176H175.241V70.744H173.465V70.968C173.902 71.2133 174.227 71.5333 174.441 71.928C174.654 72.3227 174.761 72.776 174.761 73.288C174.761 74.1307 174.467 74.808 173.881 75.32C173.305 75.832 172.446 76.088 171.305 76.088C170.814 76.088 170.387 76.04 170.025 75.944C169.865 76.0187 169.726 76.12 169.609 76.248C169.491 76.3653 169.433 76.5147 169.433 76.696C169.433 77.112 169.795 77.32 170.521 77.32H172.761C173.785 77.32 174.526 77.5333 174.985 77.96C175.454 78.376 175.689 78.9573 175.689 79.704ZM173.769 79.944C173.769 79.6773 173.662 79.4693 173.449 79.32C173.235 79.1707 172.867 79.096 172.345 79.096H169.497C169.209 79.3093 169.065 79.5973 169.065 79.96C169.065 80.28 169.198 80.5307 169.465 80.712C169.731 80.8933 170.185 80.984 170.825 80.984H171.849C172.521 80.984 173.006 80.8987 173.305 80.728C173.614 80.5573 173.769 80.296 173.769 79.944ZM171.305 74.696C172.307 74.696 172.809 74.2693 172.809 73.416V73.144C172.809 72.2907 172.307 71.864 171.305 71.864C170.302 71.864 169.801 72.2907 169.801 73.144V73.416C169.801 74.2693 170.302 74.696 171.305 74.696Z" fill="black"/>
<defs>
<clipPath id="clip0">
<path d="M84 20H112V48H84V20Z" fill="white"/>
</clipPath>
</defs>
</svg>
